<?xml version="1.0" standalone="no"?>
<!DOCTYPE svg PUBLIC "-//W3C//DTD SVG 20010904//EN"
 "http://www.w3.org/TR/2001/REC-SVG-20010904/DTD/svg10.dtd">
<svg version="1.0" xmlns="http://www.w3.org/2000/svg"
 width="512.000000pt" height="512.000000pt" viewBox="0 0 512.000000 512.000000"
 preserveAspectRatio="xMidYMid meet">
<metadata>
Created by potrace 1.16, written by Peter Selinger 2001-2019
</metadata>
<g transform="translate(0.000000,512.000000) scale(0.100000,-0.100000)"
fill="#000000" stroke="none">
<path d="M1465 3654 c-228 -35 -404 -111 -389 -169 3 -14 0 -24 -8 -28 -22 -8
-100 -115 -96 -129 3 -7 -10 -32 -28 -56 -34 -45 -85 -191 -105 -300 -6 -31
-8 -98 -5 -149 5 -86 4 -95 -15 -114 -18 -18 -21 -30 -17 -91 3 -51 8 -74 20
-82 21 -16 100 -234 93 -256 -3 -10 1 -23 10 -30 11 -9 13 -23 9 -50 -4 -27
-1 -47 11 -68 17 -28 17 -32 2 -71 -24 -58 -21 -78 11 -98 15 -10 30 -21 33
-26 9 -13 138 -77 155 -77 30 0 76 -32 86 -61 9 -26 15 -29 51 -29 23 0 95 7
161 15 l118 15 44 -49 c61 -68 94 -81 203 -81 l91 0 0 -45 c0 -54 9 -60 107
-68 40 -3 82 -12 94 -21 12 -8 35 -13 53 -10 100 13 351 49 551 79 127 19 352
50 500 69 149 20 389 51 535 70 146 20 322 42 393 50 141 17 178 32 202 82 34
71 12 150 -61 223 l-54 54 -112 -6 -113 -7 42 21 c59 29 130 94 156 143 28 54
32 195 5 222 -16 16 -14 19 21 45 124 89 114 351 -20 575 -47 78 -148 185
-220 233 -108 72 -154 84 -467 121 -96 11 -348 45 -560 76 -371 53 -460 62
-852 84 -242 13 -527 11 -635 -6z m392 -90 l98 -49 -80 -5 -80 -5 88 -9 c82
-8 92 -11 140 -49 l52 -41 -35 44 c-51 66 -118 128 -159 150 l-36 19 60 1
c110 0 429 -21 470 -31 66 -18 146 -73 266 -185 111 -103 153 -134 165 -121
19 18 -245 296 -282 298 -10 0 -14 3 -8 5 16 7 554 -72 629 -91 85 -22 181
-70 319 -159 66 -42 124 -76 130 -76 30 0 -139 143 -228 191 -28 16 -44 29
-36 29 26 0 247 -38 292 -51 72 -19 203 -86 274 -141 58 -44 65 -47 46 -21
-27 38 -82 87 -142 126 l-45 29 45 -6 c227 -32 470 -355 470 -625 0 -130 -45
-198 -150 -228 -60 -16 -71 -33 -22 -33 46 0 69 -11 81 -36 24 -53 4 -158 -38
-198 -24 -23 -38 -26 -191 -40 -91 -9 -301 -30 -467 -48 l-301 -32 -43 19
c-44 20 -112 96 -135 152 -21 48 -17 147 12 327 33 199 37 376 12 421 l-17 30
-1 -31 c0 -18 -15 -92 -34 -165 -47 -186 -67 -334 -73 -546 -3 -100 -9 -186
-13 -192 -6 -11 -602 -101 -666 -101 -65 0 -98 56 -142 240 -6 27 -11 2 -20
-118 -8 -109 -16 -164 -30 -196 -22 -49 -15 -46 -172 -71 -168 -26 -210 -18
-210 45 0 15 18 87 41 160 54 175 77 299 85 445 10 184 -19 418 -68 550 -58
157 -124 270 -197 338 -49 46 -137 97 -167 97 -33 0 -3 14 59 26 38 8 118 12
209 11 l147 -3 98 -50z m-479 -151 c95 -44 194 -178 259 -352 96 -255 79 -617
-42 -867 -126 -262 -338 -320 -504 -138 -84 91 -125 204 -156 425 -19 137 -19
382 -1 469 72 337 271 544 444 463z m2065 -1300 c-7 -2 -19 -2 -25 0 -7 3 -2
5 12 5 14 0 19 -2 13 -5z m797 -22 c22 -16 69 -85 70 -103 0 -3 -19 -9 -42
-13 -80 -13 -403 -76 -537 -106 -73 -16 -136 -28 -138 -25 -2 2 12 14 32 26
20 12 34 24 31 27 -15 15 -466 -69 -816 -152 -491 -117 -750 -166 -420 -80
212 55 379 107 362 112 -15 6 -133 -15 -340 -57 -78 -17 -146 -30 -151 -30 -5
0 -12 20 -15 45 -4 25 -22 66 -41 95 l-33 49 31 6 c18 3 118 17 222 31 390 51
484 64 660 88 368 51 1037 118 1080 109 11 -3 31 -13 45 -22z m-882 12 c-10
-2 -28 -2 -40 0 -13 2 -5 4 17 4 22 1 32 -1 23 -4z m-85 -10 c-13 -2 -33 -2
-45 0 -13 2 -3 4 22 4 25 0 35 -2 23 -4z m-90 -10 c-13 -2 -33 -2 -45 0 -13 2
-3 4 22 4 25 0 35 -2 23 -4z m-90 -10 c-13 -2 -33 -2 -45 0 -13 2 -3 4 22 4
25 0 35 -2 23 -4z m-95 -10 c-10 -2 -28 -2 -40 0 -13 2 -5 4 17 4 22 1 32 -1
23 -4z m-85 -10 c-13 -2 -33 -2 -45 0 -13 2 -3 4 22 4 25 0 35 -2 23 -4z m-85
-10 c-10 -2 -28 -2 -40 0 -13 2 -5 4 17 4 22 1 32 -1 23 -4z m-148 -19 c-47
-7 -101 -12 -120 -12 -43 1 121 25 170 25 19 0 -3 -5 -50 -13z m-172 -21 c-10
-2 -26 -2 -35 0 -10 3 -2 5 17 5 19 0 27 -2 18 -5z m-75 -10 c-7 -2 -21 -2
-30 0 -10 3 -4 5 12 5 17 0 24 -2 18 -5z m1862 -81 c-6 -5 -53 -17 -105 -26
-240 -43 -443 -76 -458 -75 -35 2 495 106 553 108 11 1 15 -3 10 -7z m-2915
-62 c0 -5 -5 -10 -11 -10 -5 0 -7 5 -4 10 3 6 8 10 11 10 2 0 4 -4 4 -10z
m811 -27 c13 -17 13 -17 -6 -3 -11 8 -22 16 -24 17 -2 2 0 3 6 3 6 0 17 -8 24
-17z m-86 -13 c-3 -5 -11 -10 -16 -10 -6 0 -7 5 -4 10 3 6 11 10 16 10 6 0 7
-4 4 -10z m65 -14 c-7 -7 -13 -7 -20 0 -6 6 -3 10 10 10 13 0 16 -4 10 -10z
m1264 4 c-30 -12 -384 -72 -397 -67 -7 2 62 18 153 35 201 38 209 39 240 40
23 1 24 0 4 -8z m-1299 -10 c4 -6 1 -9 -7 -8 -7 2 -12 -5 -11 -16 1 -13 -2
-15 -10 -7 -7 7 -6 15 3 26 15 18 17 18 25 5z m76 -7 c12 -16 12 -17 -2 -6 -9
7 -20 9 -24 5 -5 -4 -5 -1 -1 6 9 16 11 15 27 -5z m24 -120 c-3 -18 -11 -35
-18 -39 -7 -4 -9 -4 -5 1 4 4 0 14 -10 22 -9 8 -12 12 -6 9 15 -7 25 18 18 42
-5 15 -4 15 6 2 9 -12 11 -8 7 22 -3 20 -2 39 1 43 10 10 15 -62 7 -102z
m-168 75 c-3 -8 -6 -5 -6 6 -1 11 2 17 5 13 3 -3 4 -12 1 -19z m30 -30 c-3 -7
-5 -2 -5 12 0 14 2 19 5 13 2 -7 2 -19 0 -25z m916 15 c-7 -2 -19 -2 -25 0 -7
3 -2 5 12 5 14 0 19 -2 13 -5z m-56 -9 c-3 -3 -12 -4 -19 -1 -8 3 -5 6 6 6 11
1 17 -2 13 -5z m-772 -24 c-3 -5 -14 -10 -23 -9 -14 0 -13 2 3 9 27 11 27 11
20 0z m-51 -28 c3 -5 -1 -9 -9 -9 -8 0 -12 4 -9 9 3 4 7 8 9 8 2 0 6 -4 9 -8z
m49 -19 c3 -5 -5 -8 -18 -8 -13 0 -21 3 -18 8 2 4 10 7 18 7 8 0 16 -3 18 -7z"/>
<path d="M1596 3479 c180 -191 248 -397 248 -749 0 -240 -26 -386 -101 -564
-25 -59 -25 -99 -1 -109 22 -8 210 21 218 33 4 7 22 103 40 214 17 110 35 212
40 226 8 24 8 24 25 -15 9 -22 43 -95 76 -162 65 -137 83 -153 165 -153 45 0
446 45 490 55 33 7 42 47 48 205 4 80 17 214 29 298 13 84 21 155 18 157 -2 3
-19 5 -38 5 -36 0 -41 -7 -62 -86 -11 -40 -12 -41 -63 -48 -29 -3 -83 -6 -121
-6 -64 0 -68 -1 -78 -27 -17 -45 -23 -113 -10 -113 6 0 11 9 11 20 0 15 7 20
29 20 15 0 55 3 88 6 l60 6 46 -77 c33 -55 48 -93 53 -132 7 -60 0 -121 -16
-137 -6 -6 -114 -20 -241 -33 -263 -26 -279 -24 -322 44 -13 21 -69 132 -123
247 l-99 208 -8 -113 c-19 -301 -23 -318 -72 -319 -20 0 -20 7 -20 277 -1 301
-6 338 -69 493 -48 121 -156 273 -246 349 l-55 46 61 -66z"/>
<path d="M2022 3495 c6 -6 331 -45 363 -44 34 2 -44 17 -170 33 -120 16 -203
21 -193 11z"/>
<path d="M2770 3424 c31 -8 484 -64 487 -60 6 5 -153 34 -282 51 -103 13 -248
20 -205 9z"/>
<path d="M1943 3110 c8 -19 27 -64 42 -100 15 -36 55 -112 89 -170 34 -58 88
-158 119 -222 32 -65 62 -118 67 -118 6 0 10 88 10 238 0 291 -10 272 143 272
96 0 107 -2 120 -21 13 -17 18 -19 37 -9 15 8 73 9 205 4 l183 -7 -2 42 c-1
23 -9 48 -17 56 -12 12 -322 36 -626 47 -90 4 -118 -40 -130 -205 l-6 -88 -24
23 c-13 12 -62 77 -108 144 -95 136 -127 171 -102 114z"/>
<path d="M4110 3083 c0 -30 -39 -34 -210 -22 -162 12 -171 11 -191 -7 -16 -15
-20 -27 -16 -54 5 -33 56 -155 62 -148 2 2 -2 29 -7 61 -11 63 -7 77 17 57 10
-8 66 -14 169 -18 147 -5 154 -4 175 17 23 23 29 84 11 111 -6 9 -10 10 -10 3z"/>
<path d="M3344 3034 c-37 -18 -69 -72 -79 -132 -8 -47 24 -348 35 -335 4 5 14
59 24 121 23 147 40 203 72 233 23 21 35 24 104 24 68 0 82 -3 103 -23 28 -27
47 -89 47 -156 0 -60 -8 -76 -36 -76 -23 0 -24 3 -24 74 0 47 -5 77 -12 84
-18 15 -83 25 -107 17 -32 -10 -46 -46 -96 -251 -26 -104 -52 -192 -58 -196
-20 -12 -46 11 -56 50 -6 20 -20 93 -31 162 -28 167 -41 215 -51 198 -5 -7 -9
-40 -9 -73 0 -33 -7 -118 -15 -190 -24 -214 -18 -279 29 -291 24 -6 372 22
386 31 6 3 10 23 10 44 0 21 3 66 6 100 6 56 9 61 30 61 24 0 24 -2 24 -94 0
-52 3 -101 6 -110 7 -19 37 -21 52 -3 5 6 13 82 17 167 l7 155 -25 -27 c-24
-25 -33 -28 -95 -28 -104 0 -131 -8 -138 -39 -13 -67 -55 -103 -62 -53 -5 30
25 127 44 146 12 12 38 16 117 16 144 0 151 5 145 119 -3 71 -9 95 -33 140
-36 64 -100 123 -153 139 -54 16 -141 15 -178 -4z"/>
<path d="M2357 2923 c-4 -3 -7 -125 -7 -270 l0 -263 23 0 c72 1 352 31 360 39
7 7 7 24 1 48 l-9 38 -85 0 c-47 0 -116 -2 -155 -5 l-70 -5 0 213 0 212 -26 0
c-14 0 -29 -3 -32 -7z"/>
<path d="M2485 2894 c-8 -12 -17 -34 -21 -48 l-6 -27 30 31 c30 30 31 30 141
30 67 0 112 4 116 11 4 6 5 12 4 14 -2 2 -59 5 -127 7 -117 3 -124 2 -137 -18z"/>
<path d="M3795 2815 c8 -136 28 -189 79 -210 40 -17 163 -20 216 -5 45 12 97
65 110 111 12 41 12 116 0 144 l-9 20 0 -20 c-3 -80 -51 -147 -114 -159 -84
-16 -153 31 -244 164 l-45 65 7 -110z"/>
<path d="M3865 2453 c-76 -4 -95 -16 -95 -62 0 -53 3 -53 186 -41 152 9 171
13 187 31 9 12 17 34 17 50 l0 29 -112 -2 c-62 -1 -144 -3 -183 -5z"/>
<path d="M1236 3330 c-75 -23 -153 -106 -201 -213 -26 -60 -55 -163 -54 -193
0 -11 9 15 20 56 45 173 144 314 237 337 60 15 127 -3 189 -51 l48 -38 -43 40
c-40 38 -115 73 -151 71 -9 0 -29 -5 -45 -9z"/>
<path d="M1214 3198 c-27 -18 -52 -32 -56 -33 -3 0 -10 -4 -15 -9 -5 -5 -3 -6
5 -2 6 4 12 3 12 -2 0 -13 -25 -33 -33 -26 -3 3 -11 -4 -17 -16 -9 -18 -9 -21
0 -15 8 5 11 3 8 -6 -3 -8 -11 -13 -18 -11 -8 2 -10 -3 -7 -13 4 -8 2 -15 -4
-15 -6 0 -7 -4 -4 -10 3 -5 2 -10 -4 -10 -6 0 -8 -7 -5 -15 4 -8 1 -15 -5 -15
-6 0 -10 -3 -9 -7 1 -5 -6 -32 -15 -62 -9 -30 -17 -66 -18 -80 0 -20 -2 -22
-7 -9 -13 32 0 -266 14 -332 7 -36 11 -49 8 -30 -2 19 -7 100 -10 180 -6 130
-4 154 15 225 44 160 129 294 204 319 85 29 166 -16 225 -123 50 -91 73 -185
79 -331 8 -194 -33 -340 -123 -440 -63 -70 -120 -85 -187 -51 -25 13 -34 15
-26 5 18 -22 83 -37 124 -30 83 16 175 149 209 303 48 217 -9 514 -121 627
-73 74 -140 85 -219 34z"/>
<path d="M1512 3145 c12 -24 23 -43 26 -41 4 5 -36 86 -43 86 -3 0 5 -20 17
-45z"/>
<path d="M1550 3159 c0 -3 13 -35 29 -70 37 -82 61 -164 77 -264 7 -51 12 -67
13 -43 1 45 -21 154 -47 228 -19 54 -71 162 -72 149z"/>
<path d="M1253 3081 c-65 -40 -124 -214 -121 -361 1 -72 1 -71 8 30 19 260
128 395 239 295 75 -68 118 -228 108 -405 -4 -58 -9 -116 -12 -130 l-6 -25 12
25 c20 45 24 258 5 342 -44 198 -135 288 -233 229z"/>
<path d="M1556 3045 c46 -151 57 -216 58 -340 0 -71 -2 -157 -6 -190 -7 -56
-6 -57 4 -20 7 22 12 109 12 195 0 159 -15 248 -58 340 -9 19 -14 26 -10 15z"/>
<path d="M1135 2979 c-4 -6 -5 -12 -2 -15 2 -3 7 2 10 11 7 17 1 20 -8 4z"/>
<path d="M1257 2940 c-14 -11 -38 -46 -54 -77 -22 -46 -28 -74 -31 -149 -5
-111 13 -178 65 -235 44 -49 78 -51 127 -8 108 94 102 380 -10 468 -34 26 -64
27 -97 1z"/>
<path d="M973 2860 c0 -25 2 -35 4 -22 2 12 2 32 0 45 -2 12 -4 2 -4 -23z"/>
<path d="M1092 2845 c0 -16 2 -22 5 -12 2 9 2 23 0 30 -3 6 -5 -1 -5 -18z"/>
<path d="M1001 2774 c0 -11 3 -14 6 -6 3 7 2 16 -1 19 -3 4 -6 -2 -5 -13z"/>
<path d="M1083 2750 c0 -25 2 -35 4 -22 2 12 2 32 0 45 -2 12 -4 2 -4 -23z"/>
<path d="M1673 2690 c0 -30 2 -43 4 -27 2 15 2 39 0 55 -2 15 -4 2 -4 -28z"/>
<path d="M1092 2635 c0 -16 2 -22 5 -12 2 9 2 23 0 30 -3 6 -5 -1 -5 -18z"/>
<path d="M973 2615 c0 -22 2 -30 4 -17 2 12 2 30 0 40 -3 9 -5 -1 -4 -23z"/>
<path d="M1142 2610 c0 -14 2 -19 5 -12 2 6 2 18 0 25 -3 6 -5 1 -5 -13z"/>
<path d="M1663 2585 c0 -27 2 -38 4 -22 2 15 2 37 0 50 -2 12 -4 0 -4 -28z"/>
<path d="M1102 2575 c0 -16 2 -22 5 -12 2 9 2 23 0 30 -3 6 -5 -1 -5 -18z"/>
<path d="M1052 2560 c0 -14 2 -19 5 -12 2 6 2 18 0 25 -3 6 -5 1 -5 -13z"/>
<path d="M1155 2545 c16 -101 110 -235 166 -235 61 0 150 90 148 149 l-1 26
-8 -29 c-21 -70 -82 -126 -137 -126 -54 1 -113 72 -149 182 -17 51 -23 61 -19
33z"/>
<path d="M981 2524 c-3 -63 45 -255 81 -328 50 -100 170 -187 253 -185 39 1
39 2 -10 9 -61 9 -121 38 -156 77 -82 89 -114 163 -149 350 -10 54 -19 88 -19
77z"/>
<path d="M1111 2524 c0 -11 3 -14 6 -6 3 7 2 16 -1 19 -3 4 -6 -2 -5 -13z"/>
<path d="M1642 2469 c-6 -34 -10 -65 -8 -67 6 -5 28 107 24 120 -2 6 -9 -18
-16 -53z"/>
<path d="M1060 2510 c0 -32 32 -135 53 -169 54 -88 121 -142 174 -140 l28 1
-25 7 c-51 16 -89 42 -123 83 -43 54 -50 68 -81 159 -14 41 -26 67 -26 59z"/>
<path d="M1121 2484 c0 -11 3 -14 6 -6 3 7 2 16 -1 19 -3 4 -6 -2 -5 -13z"/>
<path d="M1591 2434 c0 -11 3 -14 6 -6 3 7 2 16 -1 19 -3 4 -6 -2 -5 -13z"/>
<path d="M1051 2424 c0 -11 3 -14 6 -6 3 7 2 16 -1 19 -3 4 -6 -2 -5 -13z"/>
<path d="M1061 2390 c0 -8 4 -24 9 -35 5 -13 9 -14 9 -5 0 8 -4 24 -9 35 -5
13 -9 14 -9 5z"/>
<path d="M1566 2365 c-9 -26 -7 -32 5 -12 6 10 9 21 6 23 -2 3 -7 -2 -11 -11z"/>
<path d="M1576 2284 c-48 -94 -98 -156 -156 -194 -51 -34 -46 -41 6 -9 50 31
104 97 153 188 23 45 41 84 39 86 -2 2 -21 -30 -42 -71z"/>
<path d="M1160 2326 c0 -2 8 -10 18 -17 15 -13 16 -12 3 4 -13 16 -21 21 -21
13z"/>
<path d="M1535 2304 c-9 -15 -12 -23 -6 -20 11 7 35 46 28 46 -3 0 -12 -12
-22 -26z"/>
<path d="M1484 2239 c-16 -17 -56 -44 -89 -60 -33 -16 -54 -29 -46 -29 29 0
97 40 136 80 21 22 37 40 34 40 -3 0 -18 -14 -35 -31z"/>
<path d="M1160 2186 c28 -31 92 -71 130 -80 14 -4 3 5 -25 19 -27 14 -68 40
-90 57 -38 30 -39 30 -15 4z"/>
<path d="M1288 2043 c12 -2 30 -2 40 0 9 3 -1 5 -23 4 -22 0 -30 -2 -17 -4z"/>
<path d="M3980 2038 c-41 -4 -79 -10 -85 -12 -16 -7 74 -5 130 2 78 11 39 19
-45 10z"/>
<path d="M3665 1964 c-189 -25 -500 -78 -482 -82 31 -6 617 76 662 93 23 8
-87 2 -180 -11z"/>
<path d="M2665 1924 c-142 -30 -326 -76 -321 -81 4 -4 241 47 396 86 58 15 0
10 -75 -5z"/>
<path d="M2926 1854 c-38 -7 -71 -16 -75 -20 -9 -9 80 5 131 21 55 17 32 17
-56 -1z"/>
</g>
</svg>